<?xml version="1.0" encoding="UTF-8"?><svg id="Capa_1" xmlns="http://www.w3.org/2000/svg" viewBox="0 0 171 171"><defs><style>.cls-1{fill:#93f9f0;}</style></defs><g><g><path class="cls-1" d="M82.01,88.38c-9.86,0-17.87-8.02-17.87-17.87s8.02-17.87,17.87-17.87,17.87,8.02,17.87,17.87-8.02,17.87-17.87,17.87Zm0-33.75c-8.75,0-15.87,7.12-15.87,15.87s7.12,15.87,15.87,15.87,15.87-7.12,15.87-15.87-7.12-15.87-15.87-15.87Z"/><path class="cls-1" d="M97.18,79.33c-9.86,0-17.87-8.02-17.87-17.87s8.02-17.87,17.87-17.87,17.87,8.02,17.87,17.87-8.02,17.87-17.87,17.87Zm0-33.75c-8.75,0-15.87,7.12-15.87,15.87s7.12,15.87,15.87,15.87,15.87-7.12,15.87-15.87-7.12-15.87-15.87-15.87Z"/><path class="cls-1" d="M82.32,70.53c-9.86,0-17.87-8.02-17.87-17.87s8.02-17.87,17.87-17.87,17.87,8.02,17.87,17.87-8.02,17.87-17.87,17.87Zm0-33.75c-8.75,0-15.87,7.12-15.87,15.87s7.12,15.87,15.87,15.87,15.87-7.12,15.87-15.87-7.12-15.87-15.87-15.87Z"/><path class="cls-1" d="M67.39,79.33c-9.86,0-17.87-8.02-17.87-17.87s8.02-17.87,17.87-17.87,17.87,8.02,17.87,17.87-8.02,17.87-17.87,17.87Zm0-33.75c-8.75,0-15.87,7.12-15.87,15.87s7.12,15.87,15.87,15.87,15.87-7.12,15.87-15.87-7.12-15.87-15.87-15.87Z"/><path class="cls-1" d="M67.39,96.17c-9.86,0-17.87-8.02-17.87-17.87s8.02-17.87,17.87-17.87,17.87,8.02,17.87,17.87-8.02,17.87-17.87,17.87Zm0-33.75c-8.75,0-15.87,7.12-15.87,15.87s7.12,15.87,15.87,15.87,15.87-7.12,15.87-15.87-7.12-15.87-15.87-15.87Z"/><path class="cls-1" d="M82.29,104.84c-9.86,0-17.87-8.02-17.87-17.87s8.02-17.87,17.87-17.87,17.87,8.02,17.87,17.87-8.02,17.87-17.87,17.87Zm0-33.75c-8.75,0-15.87,7.12-15.87,15.87s7.12,15.87,15.87,15.87,15.87-7.12,15.87-15.87-7.12-15.87-15.87-15.87Z"/><path class="cls-1" d="M97.18,96.17c-9.86,0-17.87-8.02-17.87-17.87s8.02-17.87,17.87-17.87,17.87,8.02,17.87,17.87-8.02,17.87-17.87,17.87Zm0-33.75c-8.75,0-15.87,7.12-15.87,15.87s7.12,15.87,15.87,15.87,15.87-7.12,15.87-15.87-7.12-15.87-15.87-15.87Z"/></g><path class="cls-1" d="M147.61,87.22c-2.38-4.88-4.89-9.68-7.32-14.54-.76-1.52-1.76-3.04-2.07-4.66-.7-3.72-1.09-7.51-1.53-11.27-.8-6.86-3.33-12.91-8.14-17.95-6.6-6.92-14.17-12.38-23.12-15.91-7.52-2.96-15.28-4.63-23.37-4.64-5.63,0-11.16,.74-16.62,2.21-13.44,3.63-24.62,10.76-33.27,21.63-8.76,11-13.4,23.59-13.7,37.75-.26,12,2.64,23.13,8.77,33.42,3.81,6.4,8.6,11.98,14.38,16.68,3.06,2.49,4.83,5.57,4.95,9.56,.14,4.65,.31,9.29,.49,13.94,.03,.81,.16,1.61,.24,2.42h.63c0-6.25,0-12.51,0-18.76,0-.29-.1-.58-.16-.86-.73-3.27-2.56-5.84-4.99-8.1-11.76-10.95-18.47-24.42-19.72-40.46-.49-6.3,.03-12.58,1.55-18.74,2.74-11.03,8.38-20.42,16.53-28.25,1.29-1.24,2.68-2.4,4.12-3.5,5.24-3.82,25.12-16.55,50.05-10.49,0,0,14.37,2.63,26.92,14.57,3.25,3.12,6.16,6.55,7.23,11.01,.98,4.07,1.47,8.26,2.17,12.4,.47,2.83,.63,5.72,2.12,8.31,1.85,3.22,3.58,6.51,5.31,9.79,1.52,2.89,3.03,5.79,4.42,8.75,.65,1.38,.17,2.56-1.04,3.61-3.36,2.92-6.61,5.95-9.9,8.95-1.18,1.08-1.77,2.42-1.76,4.03,.02,2.36,0,4.72,0,7.08,0,3.43,0,6.85,0,10.28,0,4.55-2.93,7.72-7.51,7.85-4.54,.13-9.09,.14-13.64,.05-8.91-.18-17.25-2.54-25.04-6.87-1.12-.62-2.25-1.25-3.64-2.02,.25,.37,.29,.47,.36,.53,8.81,6.96,18.99,10.46,30.03,11.56,4.07,.4,8.2,.32,12.3,.33,5.46,.02,10.37-4.29,11-9.71,.33-2.81,.41-5.65,.57-8.48,.18-3.22,.25-6.45,.54-9.65,.08-.85,.64-1.84,1.29-2.43,2.67-2.41,5.49-4.66,8.21-7.02,1.54-1.34,3.08-2.64,3.65-4.81,.74-2.78-.12-5.24-1.28-7.61Z"/></g></svg>